<svg xmlns="http://www.w3.org/2000/svg" width="200" height="200" viewBox="0 0 32 32"><defs><linearGradient id="bgGradient" x1="0%" y1="0%" x2="100%" y2="100%"><stop offset="0%" style="stop-color:#d0b9ff"/><stop offset="100%" style="stop-color:#afe9ff"/></linearGradient><style type="text/css"> @keyframes pulse{0%{transform:scale(1);}50%{transform:scale(1.1);}100%{transform:scale(1);}}@keyframes float{0%{transform:translateY(0);}50%{transform:translateY(-2px);}100%{transform:translateY(0);}}@keyframes fadeIn{0%{opacity:0;transform:translateY(2px);}100%{opacity:1;transform:translateY(0);}}.dot{animation:pulse 2s ease-in-out infinite;}.float-photo{animation:float 3s ease-in-out infinite;}.text-pix{animation:fadeIn 1s ease-out forwards;}</style></defs><rect x="0" y="0" width="32" height="32" rx="10" ry="10" fill="url(#bgGradient)"/><g><circle cx="4" cy="4" r="1" fill="white"/><circle cx="28" cy="4" r="1" fill="white"/><circle cx="4" cy="28" r="1" fill="white"/><circle cx="28" cy="28" r="1" fill="white"/></g><g class="float-photo"><path d=" M23.5 11.5 h-3 a0.5 0.5 0 0 0-0.5 0.5 v2 a0.5 0.5 0 0 0 0.5 0.5 h3 a0.5 0.5 0 0 0 0.5-0.5 v-2 a0.5 0.5 0 0 0-0.5-0.5 Z M20.8 12.8 a0.3 0.3 0 1 1 0-0.6 a0.3 0.3 0 0 1 0 0.6 M21 13.5 l0.5-0.5 l0.5 0.5 l1-1" stroke="white" stroke-width="0.3" fill="none"/></g><path d="M8 8 H24 C25.1 8 26 8.9 26 10 V22 C26 23.1 25.1 24 24 24 H8 C6.9 24 6 23.1 6 22 V10 C6 8.9 6.9 8 8 8 Z" fill="none" stroke="white" stroke-width="1"  stroke-linecap="round" stroke-linejoin="round" rx="6" ry="6"/><path d="M10 18 L13 14 L16 18 L19 14 L22 18" stroke="white" stroke-width="1" stroke-linecap="round" stroke-linejoin="round" fill="none"/><circle class="dot" cx="10" cy="12" r="0.8" fill="white"/><g class="text-pix" transform="translate(0, -2)"><path d="M11 26.5v-5h1.2c0.6 0 1.1 0.5 1.1 1.1v0.8c0 0.6-0.5 1.1-1.1 1.1H11z" stroke="white" stroke-width="0.4" stroke-linecap="round" stroke-linejoin="round" fill="none"/><path d="M15.5 26.5v-5" stroke="white" stroke-width="0.4" stroke-linecap="round" fill="none"/><path d="M18 21.5l2 5m0-5l-2 5" stroke="white" stroke-width="0.4" stroke-linecap="round" stroke-linejoin="round" fill="none"/></g></svg>